<svg id="Layer_1" data-name="Layer 1" xmlns="http://www.w3.org/2000/svg" viewBox="0 0 4000 2000"><defs><style>.cls-1{fill:#fff;}.cls-2{fill:#6f8466;}</style></defs><title>Logo hvid</title><path class="cls-1" d="M1125.35,1091.39H1090.8V860.47h34.55v16.27q20.42-20.42,46.37-20.42,30.86,0,50.82,22.72,20.27,22.57,20.27,57,0,33.62-20.11,56-20,22.26-50.36,22.26-26.26,0-47-21Zm82.14-155.23q0-21.49-11.67-35A37.72,37.72,0,0,0,1166,887.49q-19,0-30.86,13.2t-11.82,34.7q0,21,11.82,34.7,11.67,13.36,30.71,13.36a37.44,37.44,0,0,0,29.63-13.51Q1207.49,956.43,1207.49,936.16Z"/><path class="cls-1" d="M1313.89,750.69V1010h-34.55V750.69Z"/><path class="cls-1" d="M1467.89,860.47h34.7V1010h-34.7V994.35q-21.34,20-45.91,20-31,0-51.28-22.42-20.12-22.88-20.11-57.12,0-33.62,20.11-56t50.36-22.42q26.1,0,46.83,21.5Zm-82,74.31q0,21.5,11.52,35a37.71,37.71,0,0,0,29.79,13.66q19.19,0,31-13.2,11.82-13.66,11.82-34.7t-11.82-34.7q-11.82-13.36-30.71-13.36-17.81,0-29.79,13.51Q1385.9,914.67,1385.9,934.78Z"/><path class="cls-1" d="M1546.19,860.47h34.7v13.82q18.11-18,40.84-18,26.1,0,40.69,16.43,12.59,14,12.59,45.6V1010h-34.7V926.49q0-22.11-6.14-30.55-6-8.6-21.8-8.6-17.2,0-24.41,11.36-7.06,11.21-7.06,39.15V1010h-34.7Z"/><path class="cls-1" d="M1754.24,892.71V1010h-34.55V892.71H1705V860.47h14.74V805.66h34.55v54.81h26.87v32.24Z"/><path class="cls-1" d="M1943.55,943.38H1836.38q1.38,18.42,12,29.33,10.59,10.75,27.18,10.75,12.9,0,21.34-6.14,8.29-6.14,18.88-22.72l29.17,16.27a116.16,116.16,0,0,1-14.28,19.73,75.93,75.93,0,0,1-16.12,13.51,64.68,64.68,0,0,1-18.58,7.75,90.51,90.51,0,0,1-21.65,2.46q-33.47,0-53.74-21.5-20.27-21.65-20.27-57.42,0-35.47,19.65-57.42,19.81-21.65,52.51-21.65,33,0,52.2,21,19,20.88,19,57.88Zm-35.47-28.25q-7.22-27.64-34.85-27.64a35.82,35.82,0,0,0-11.82,1.92,33.89,33.89,0,0,0-10.06,5.53,35,35,0,0,0-7.75,8.67,40.29,40.29,0,0,0-4.91,11.52Z"/><path class="cls-1" d="M2092.62,1091.39h-34.55V860.47h34.55v16.27Q2113,856.33,2139,856.33q30.86,0,50.82,22.72,20.27,22.57,20.27,57,0,33.62-20.11,56-20,22.26-50.36,22.26-26.25,0-47-21Zm82.14-155.23q0-21.49-11.67-35a37.72,37.72,0,0,0-29.79-13.66q-19,0-30.86,13.2t-11.82,34.7q0,21,11.82,34.7,11.67,13.36,30.71,13.36a37.44,37.44,0,0,0,29.63-13.51Q2174.76,956.43,2174.76,936.16Z"/><path class="cls-1" d="M2246.62,860.47h34.55v13.36q9.52-10,16.89-13.66a38.74,38.74,0,0,1,17.81-3.84q13.66,0,28.56,8.9l-15.81,31.63q-9.83-7.06-19.19-7.06-28.25,0-28.25,42.68V1010h-34.55Z"/><path class="cls-1" d="M2354.4,934.17q0-32.39,23.18-55.12t56.5-22.72q33.47,0,56.81,22.88,23,22.88,23,56.19,0,33.62-23.18,56.35-23.34,22.57-57.27,22.57-33.63,0-56.35-23Q2354.4,968.56,2354.4,934.17Zm35.31.61q0,22.42,12,35.47,12.28,13.21,32.4,13.2,20.27,0,32.4-13.05t12.13-34.85q0-21.8-12.13-34.85-12.28-13.2-32.4-13.2-19.8,0-32.09,13.2T2389.71,934.78Z"/><path class="cls-1" d="M2587.93,892.71V1010h-34.55V892.71h-14.74V860.47h14.74V805.66h34.55v54.81h26.87v32.24Z"/><path class="cls-1" d="M2777.24,943.38H2670.07q1.38,18.42,12,29.33,10.59,10.75,27.18,10.75,12.9,0,21.34-6.14,8.29-6.14,18.88-22.72l29.17,16.27a116.15,116.15,0,0,1-14.28,19.73,75.94,75.94,0,0,1-16.12,13.51,64.67,64.67,0,0,1-18.58,7.75,90.51,90.51,0,0,1-21.65,2.46q-33.47,0-53.74-21.5Q2634,971.17,2634,935.4q0-35.47,19.65-57.42,19.81-21.65,52.51-21.65,33,0,52.2,21,19,20.88,19,57.88Zm-35.47-28.25q-7.22-27.64-34.85-27.64a35.81,35.81,0,0,0-11.82,1.92,33.87,33.87,0,0,0-10.06,5.53,35,35,0,0,0-7.75,8.67,40.29,40.29,0,0,0-4.91,11.52Z"/><path class="cls-1" d="M2809.79,798.29A22.55,22.55,0,0,1,2832.21,776a21.76,21.76,0,0,1,16,6.6,21.26,21.26,0,0,1,6.6,15.81,21.75,21.75,0,0,1-6.6,16,21.25,21.25,0,0,1-15.81,6.6,22.54,22.54,0,0,1-22.57-22.72Zm39.77,62.18V1010H2815V860.47Z"/><path class="cls-1" d="M2893.32,860.47H2928v13.82q18.11-18,40.84-18,26.1,0,40.69,16.43,12.59,14,12.59,45.6V1010h-34.7V926.49q0-22.11-6.14-30.55-6-8.6-21.8-8.6-17.2,0-24.41,11.36-7.06,11.21-7.06,39.15V1010h-34.7Z"/><path class="cls-1" d="M1452,1128v5.27h-30.69v76.54h-6.38v-76.54h-30.69V1128Z"/><path class="cls-1" d="M1466,1128v9.84h-5.8V1128Zm0,27.93v53.88h-5.8v-53.88Z"/><path class="cls-1" d="M1487.83,1128v81.81H1482V1128Z"/><path class="cls-1" d="M1532.55,1159.42v6.21q-8.2-5.5-14.76-5.51a12.85,12.85,0,0,0-8.2,2.63,8,8,0,0,0-3.34,6.48,7.49,7.49,0,0,0,2,5.05q2,2.31,11.19,5.84t12,7.34a14,14,0,0,1,2.81,8.49,13.33,13.33,0,0,1-5.1,10.57,18.84,18.84,0,0,1-12.59,4.3,30.65,30.65,0,0,1-16.16-4.92v-5.62q9.54,4.92,16.92,4.92a12.41,12.41,0,0,0,8.17-2.63,8.34,8.34,0,0,0,3.19-6.73,7.7,7.7,0,0,0-2.08-5.18q-2.08-2.37-11.24-6t-11.89-7.18a12.61,12.61,0,0,1-2.72-7.88,13.25,13.25,0,0,1,5.07-10.45,18.39,18.39,0,0,1,12.33-4.3Q1524.76,1154.85,1532.55,1159.42Z"/><path class="cls-1" d="M1550,1128v81.81h-5.74V1128Zm38.13,27.93-29.46,25.57,34,28.31h-7.87l-34-28.29,29.76-25.59Z"/><path class="cls-1" d="M1633.13,1209.78v-8.9h-.23a25.27,25.27,0,0,1-7.7,7.67,19.87,19.87,0,0,1-10,2.28,19.55,19.55,0,0,1-14.35-5.62q-5.68-5.62-5.68-15.93v-33.38h5.74v33.26q0,7.5,4.1,11.77a14.1,14.1,0,0,0,10.66,4.28,17.14,17.14,0,0,0,9.57-2.58q4-2.58,7.94-8.9v-37.83h5.74v53.88Z"/><path class="cls-1" d="M1699.64,1128v81.81h-5.8v-4.22a26.86,26.86,0,0,1-15.93,5.27,25.92,25.92,0,0,1-19.36-8.11,27.52,27.52,0,0,1-7.88-19.94q0-12,7.76-20a26.05,26.05,0,0,1,19.47-8q7.44,0,15.93,4.33V1128Zm-5.8,72.33v-34.79a28.48,28.48,0,0,0-15.69-5,20.53,20.53,0,0,0-15.34,6.18q-6,6.18-6,15.78a22.19,22.19,0,0,0,6.44,16.28,21.75,21.75,0,0,0,16.1,6.5A25,25,0,0,0,1693.84,1200.3Z"/><path class="cls-1" d="M1751.73,1155.91v9.49h.23q6.56-10.54,17.16-10.54,12.36,0,17.39,12.94,7.61-12.94,18.74-12.94a17,17,0,0,1,13.53,6q5.15,6,5.15,15.87v33.09h-5.74v-30.57q0-8.72-3.69-13.73a12.13,12.13,0,0,0-10.37-5,13.36,13.36,0,0,0-8.67,3q-3.69,3-7.61,9.6v36.72h-5.8V1179.1q0-9-3.84-13.79a12.45,12.45,0,0,0-10.28-4.83q-9.37,0-16.22,11.54v37.77H1746v-53.88Z"/><path class="cls-1" d="M1883.89,1180.85h-42.46a22.63,22.63,0,0,0-.18,2.81,20.51,20.51,0,0,0,6.44,15.29,21.11,21.11,0,0,0,15.23,6.27q10.25,0,20-8v6.5a33.08,33.08,0,0,1-20.73,7.14,25.33,25.33,0,0,1-19.27-8.08q-7.61-8.08-7.61-20.56,0-11.83,7-19.59a24,24,0,0,1,34.61-.76Q1883.89,1168.85,1883.89,1180.85Zm-41.7-4.63h34.9q-3-15.75-17-15.75a17.06,17.06,0,0,0-11.45,4.13Q1843.77,1168.73,1842.19,1176.23Z"/><path class="cls-1" d="M1941.15,1128v81.81h-5.8v-4.22a26.86,26.86,0,0,1-15.93,5.27,25.92,25.92,0,0,1-19.36-8.11,27.52,27.52,0,0,1-7.88-19.94q0-12,7.76-20a26.05,26.05,0,0,1,19.47-8q7.44,0,15.93,4.33V1128Zm-5.8,72.33v-34.79a28.48,28.48,0,0,0-15.69-5,20.53,20.53,0,0,0-15.34,6.18q-6,6.18-6,15.78a22.19,22.19,0,0,0,6.44,16.28,21.75,21.75,0,0,0,16.1,6.5A25,25,0,0,0,1935.35,1200.3Z"/><path class="cls-1" d="M2030.31,1155.91v4.68h-12.24q7.44,6.79,7.44,14.29,0,6.74-2.9,10.66a17.33,17.33,0,0,1-6.91,5.71,70.3,70.3,0,0,1-10.69,3.51q-6.68,1.73-8.37,3.25a4.61,4.61,0,0,0-1.7,3.51,4.28,4.28,0,0,0,2.2,3.75q2.2,1.4,13.65,2t15.43,4.39a13.93,13.93,0,0,1-2.4,21.46q-6.38,4.19-17.74,4.19t-17.45-4q-6.15-4-6.15-10.45,0-10.54,15.69-13.06v-.23q-8.73-2-8.73-7.67t10.78-8.78V1193a20,20,0,0,1-10.75-7,18.64,18.64,0,0,1,2.25-24.71q5.91-5.36,17-5.36Zm-23.89,76.66q8.37,0,13.32-2.87t4.95-7.55q0-9.49-17.16-9.49-19.56,0-19.56,10T2006.41,1232.56Zm-.82-43.16A14.5,14.5,0,0,0,2020,1175a13.68,13.68,0,0,0-4.25-10.1,14.1,14.1,0,0,0-10.28-4.19,13.69,13.69,0,0,0-10.07,4.1,13.56,13.56,0,0,0-4.1,10,14.32,14.32,0,0,0,4.16,10.37A13.6,13.6,0,0,0,2005.59,1189.4Z"/><path class="cls-1" d="M2063.26,1154.85a26.15,26.15,0,0,1,19.53,8q7.82,8,7.82,20t-7.82,19.94a27.93,27.93,0,0,1-39.12,0q-7.88-8-7.88-19.94t7.88-20A26.34,26.34,0,0,1,2063.26,1154.85Zm0,50.36a20.15,20.15,0,0,0,15.17-6.35,23.95,23.95,0,0,0,0-31.95,20,20,0,0,0-15.14-6.44,20.27,20.27,0,0,0-15.26,6.38,24,24,0,0,0,0,32A20.32,20.32,0,0,0,2063.26,1205.22Z"/><path class="cls-1" d="M2148.92,1128v81.81h-5.8v-4.22a26.86,26.86,0,0,1-15.93,5.27,25.92,25.92,0,0,1-19.36-8.11,27.52,27.52,0,0,1-7.88-19.94q0-12,7.76-20a26,26,0,0,1,19.47-8q7.44,0,15.93,4.33V1128Zm-5.8,72.33v-34.79a28.48,28.48,0,0,0-15.69-5,20.53,20.53,0,0,0-15.34,6.18q-6,6.18-6,15.78a22.18,22.18,0,0,0,6.44,16.28,21.75,21.75,0,0,0,16.1,6.5A25,25,0,0,0,2143.13,1200.3Z"/><path class="cls-1" d="M2225.14,1159.42v6.21q-8.2-5.5-14.76-5.51a12.84,12.84,0,0,0-8.2,2.63,8,8,0,0,0-3.34,6.48,7.49,7.49,0,0,0,2,5.05q2,2.31,11.19,5.84t12,7.34a14,14,0,0,1,2.81,8.49,13.33,13.33,0,0,1-5.1,10.57,18.84,18.84,0,0,1-12.59,4.3,30.65,30.65,0,0,1-16.16-4.92v-5.62q9.54,4.92,16.92,4.92a12.41,12.41,0,0,0,8.17-2.63,8.34,8.34,0,0,0,3.19-6.73,7.7,7.7,0,0,0-2.08-5.18q-2.08-2.37-11.24-6t-11.89-7.18a12.62,12.62,0,0,1-2.72-7.88,13.24,13.24,0,0,1,5.07-10.45,18.39,18.39,0,0,1,12.33-4.3Q2217.35,1154.85,2225.14,1159.42Z"/><path class="cls-1" d="M2280.29,1200.41v4.8q-7.44,5.62-10.89,5.62a2.9,2.9,0,0,1-2.75-1.32,14.93,14.93,0,0,1-1.11-5.36q-8.49,6.68-16.87,6.68a14.45,14.45,0,0,1-10.31-4,12.79,12.79,0,0,1-4.22-9.66q0-8.78,8.14-13.85t23.25-5.83v-6.85q0-11-11.95-11-7.61,0-16.46,6.85v-5.92q9.13-5.74,17.39-5.74,7.32,0,12.06,3.6t4.74,10.45v33.56q0,2.75,1.29,2.75Q2274.26,1205.22,2280.29,1200.41Zm-14.76-1.29v-16.81q-11.07-.41-18.36,3.89t-7.29,11a8,8,0,0,0,3,6.33,11.38,11.38,0,0,0,7.61,2.58Q2257.92,1206.09,2265.53,1199.13Z"/><path class="cls-1" d="M2293.21,1155.91v9.49h.23q6.56-10.54,17.16-10.54,12.35,0,17.39,12.94,7.61-12.94,18.74-12.94a17,17,0,0,1,13.53,6q5.15,6,5.15,15.87v33.09h-5.74v-30.57q0-8.72-3.69-13.73a12.13,12.13,0,0,0-10.37-5,13.36,13.36,0,0,0-8.67,3q-3.69,3-7.61,9.6v36.72h-5.8V1179.1q0-9-3.84-13.79a12.45,12.45,0,0,0-10.28-4.83q-9.37,0-16.22,11.54v37.77h-5.74v-53.88Z"/><path class="cls-1" d="M2423.27,1155.91l-23.2,54.93h-3.46L2372,1155.91h5.84l20.31,45.39,19.49-45.39Z"/><path class="cls-1" d="M2436.66,1128v9.84h-5.8V1128Zm0,27.93v53.88h-5.8v-53.88Z"/><path class="cls-1" d="M2462.3,1138v17.86h15.11v4.68H2462.3v32q0,7.73,1.26,10.16t6.76,2.43a23.8,23.8,0,0,0,9.84-2.64v5.51a25.42,25.42,0,0,1-11.13,2.75,13.25,13.25,0,0,1-8.9-3,10.49,10.49,0,0,1-3.57-8.43v-38.77H2442v-4.68h14.52v-12.83l3.92-5Z"/><path class="cls-1" d="M2497.77,1138v17.86h15.11v4.68h-15.11v32q0,7.73,1.26,10.16t6.76,2.43a23.8,23.8,0,0,0,9.84-2.64v5.51a25.42,25.42,0,0,1-11.13,2.75,13.25,13.25,0,0,1-8.9-3,10.49,10.49,0,0,1-3.57-8.43v-38.77h-14.52v-4.68H2492v-12.83l3.92-5Z"/><path class="cls-1" d="M2529.44,1128v9.84h-5.8V1128Zm0,27.93v53.88h-5.8v-53.88Z"/><path class="cls-1" d="M2587.1,1155.91v4.68h-12.24q7.44,6.79,7.44,14.29,0,6.74-2.9,10.66a17.34,17.34,0,0,1-6.91,5.71,70.28,70.28,0,0,1-10.69,3.51q-6.68,1.73-8.37,3.25a4.61,4.61,0,0,0-1.7,3.51,4.28,4.28,0,0,0,2.2,3.75q2.2,1.4,13.65,2t15.43,4.39a13.93,13.93,0,0,1-2.4,21.46q-6.38,4.19-17.75,4.19t-17.45-4q-6.15-4-6.15-10.45,0-10.54,15.7-13.06v-.23q-8.73-2-8.73-7.67t10.78-8.78V1193a20,20,0,0,1-10.75-7,18.64,18.64,0,0,1,2.25-24.71q5.92-5.36,17-5.36Zm-23.89,76.66q8.37,0,13.32-2.87t4.95-7.55q0-9.49-17.16-9.49-19.56,0-19.56,10T2563.21,1232.56Zm-.82-43.16A14.5,14.5,0,0,0,2576.8,1175a13.68,13.68,0,0,0-4.25-10.1,14.1,14.1,0,0,0-10.28-4.19,13.69,13.69,0,0,0-10.07,4.1,13.56,13.56,0,0,0-4.1,10,14.32,14.32,0,0,0,4.16,10.37A13.6,13.6,0,0,0,2562.39,1189.4Z"/><path class="cls-1" d="M2600.73,1128v37.3h.23q6.73-10.42,17.75-10.42,9.13,0,14.58,5.86t5.45,16.11v33H2633V1179.1q0-18.62-14.64-18.62-10.48,0-17.63,11.54v37.77H2595V1128Z"/><path class="cls-1" d="M2699,1180.85h-42.46a22.63,22.63,0,0,0-.18,2.81,20.51,20.51,0,0,0,6.44,15.29,21.11,21.11,0,0,0,15.23,6.27q10.25,0,20-8v6.5a33.07,33.07,0,0,1-20.73,7.14,25.33,25.33,0,0,1-19.27-8.08q-7.61-8.08-7.61-20.56,0-11.83,7-19.59a24,24,0,0,1,34.61-.76Q2699,1168.85,2699,1180.85Zm-41.7-4.63h34.9q-3-15.75-17-15.75a17.06,17.06,0,0,0-11.45,4.13Q2658.87,1168.73,2657.29,1176.23Z"/><path class="cls-1" d="M2756.24,1128v81.81h-5.8v-4.22a26.87,26.87,0,0,1-15.93,5.27,25.92,25.92,0,0,1-19.36-8.11,27.52,27.52,0,0,1-7.88-19.94q0-12,7.76-20a26.05,26.05,0,0,1,19.47-8q7.44,0,15.93,4.33V1128Zm-5.8,72.33v-34.79a28.49,28.49,0,0,0-15.7-5,20.53,20.53,0,0,0-15.34,6.18q-6,6.18-6,15.78a22.18,22.18,0,0,0,6.44,16.28,21.75,21.75,0,0,0,16.1,6.5A25,25,0,0,0,2750.45,1200.3Z"/><path class="cls-2" d="M2852,765.39c3,8.11,14.7,40.16.73,53.25-5,4.72-11.53,5.21-18,5.6-25,1.51-51.1-13.72-66.15-35.48-8.68-12.55-11.76-24.47-15.72-40-6.57-25.75-3.77-40.1-16.4-56.58-6.89-9-13.31-12-12.2-14.44,2.3-5,32.79,1.16,58.65,14.22C2799.2,700.18,2836.3,722.6,2852,765.39Z"/><path class="cls-2" d="M2879.6,761.24c-10.47,15.4-17.1,40.45-6.8,48.56,13.23,10.42,57.56-4.64,75.91-31.71,7.54-11.12,9.22-22.08,23.63-34.34,6.32-5.37,20.86-15.91,20.87-15.92h0s-26.82-2.46-43.23-1.38C2944.89,726.79,2900.61,730.32,2879.6,761.24Z"/></svg>